# xmcd
#
# Track frame offsets:
#	150
#	23517
#	42477
#	70672
#	107055
#	123545
#	139565
#	161385
#	184415
#	208942
#	227785
#
# Disc length: 3443
#
# Revision: 5
# Processed by: cddbd v1.5.1PL0 Copyright (c) Steve Scherf et al.
# Submitted via: ExactAudioCopy v0.90b4
# Normalized: r3:DSETVAR1,TSWAP
#
DISCID=970d710b
DTITLE=Various Artist - GRP Digital Sampler Vol. 1
DYEAR=1984
DGENRE=Fusion
TTITLE0=Dave Grusin - Power Wave
TTITLE1=Dave Grusin w Phoebe Snow - Thankful N' Thoughtful
TTITLE2=Dave Grusin - Mountain Dance
TTITLE3=Dave and Don Gusin, Lee Ritenour - Count Down
TTITLE4=The Glenn Miller Orchestra - In the Mood
TTITLE5=Dave Valentin - Encendido (On Fire)
TTITLE6=Dave Valentin - Monkey Buttons
TTITLE7=Special EFX - Sambuca Nights
TTITLE8=Special EFX - Forever Hold Your Peace
TTITLE9=Kevin Eubanks - The Sting
TTITLE10=Gerry Mulligan - Sun on Stairs
EXTD=GRP Records 1984
EXTT0=
EXTT1=
EXTT2=
EXTT3=
EXTT4=
EXTT5=
EXTT6=
EXTT7=
EXTT8=
EXTT9=
EXTT10=
PLAYORDER=
